<?xml version="1.0" encoding="utf-8" ?><svg xmlns="http://www.w3.org/2000/svg" xmlns:xlink="http://www.w3.org/1999/xlink" width="192" height="192" viewBox="0 0 192 192"><path fill="#F94FD4" d="M92.4215 32.494C94.9858 32.294 97.0529 32.8854 99.3989 33.9191C106.046 36.8482 111.996 41.3736 118.169 45.1617C126.004 49.9702 134.165 54.4555 141.842 59.494C145.899 62.157 149.55 65.1383 150.553 70.1497C151.262 73.6934 151.051 77.696 151.054 81.2998L151.044 95.3247L151.013 112.526C150.999 116.497 151.09 120.54 150.704 124.494C150.536 126.22 150.217 128.665 149.196 130.12C147.937 131.914 145.833 133.487 144.056 134.728C140.955 136.892 137.615 138.742 134.37 140.681C130.087 143.26 125.817 145.861 121.56 148.484C114.58 152.772 107.773 157.723 100.417 161.331C98.546 162.248 96.609 162.725 94.5617 163.054C91.775 163.092 89.4043 162.649 86.9176 161.37C79.3503 157.481 72.4864 152.521 65.2168 148.141C57.4583 143.467 48.9315 139.466 41.8596 133.769C39.7941 132.105 37.5508 130.028 36.7276 127.437C36.2462 125.921 36.0407 124.326 35.9537 122.743C35.5 114.494 35.9748 106.028 35.951 97.7514C35.928 89.7344 35.3732 80.5232 36.0039 72.6735C36.1566 70.7735 36.4767 68.9014 37.3617 67.1976C38.1574 65.6657 39.2345 64.1447 40.5965 63.0662C45.2199 59.4051 52.4305 55.8043 57.6623 52.6107C62.1226 49.9177 66.5504 47.1712 70.9447 44.3719C77.8149 39.9335 84.5428 34.9627 92.4215 32.494Z"/><path fill="#2C0F32" d="M92.7194 35.5496C95.2173 35.4507 97.2451 36.1401 99.4663 37.2619C106.503 40.8155 114.058 46.2658 120.873 50.4836C127.926 54.8483 135.431 58.7038 142.139 63.5925C143.525 64.6026 146.237 66.5309 146.76 68.2473C148.572 74.1882 147.898 91.1264 147.919 98.1562C147.942 106.438 148.33 114.904 147.671 123.16C147.539 124.819 147.369 127.185 146.511 128.659C145.535 130.338 142.876 131.959 141.251 133.057C134.429 137.668 127.06 141.654 120.013 145.935C114.143 149.501 108.405 153.516 102.374 156.777C99.7841 158.177 97.2323 159.44 94.3549 160.145C91.2467 160.261 88.1576 158.708 85.5303 157.201C80.063 154.066 74.9358 150.316 69.5169 147.078L52.1721 136.792C49.2106 135.002 45.9073 133.255 43.2731 131.013C41.5284 129.529 40.0931 127.662 39.4996 125.421C38.1415 120.295 39.0536 108.802 39.0593 102.916C39.0689 93.039 38.6353 82.9809 39.2854 73.1356C39.3759 71.765 39.47 69.5254 40.1913 68.3332C43.175 63.4013 63.981 52.3234 69.7747 48.7247C75.5161 45.1583 80.9916 41.1566 86.9412 37.928C88.8167 36.9102 90.6403 36.0616 92.7194 35.5496Z"/><path fill="#F94FD4" d="M92.9752 39.0389C93.6663 39.0161 94.438 39.131 95.1191 39.2477C96.9283 39.5578 98.7333 40.3891 100.329 41.2695C105.885 44.3342 111.134 48.2263 116.581 51.5214C124.122 56.0836 132.145 60.2028 139.373 65.2148C141.001 66.3437 142.785 67.6853 143.897 69.3571C145.613 71.9393 145.276 120.887 144.261 125.941C144.176 126.364 144.083 126.64 143.815 126.985C142.699 128.419 140.934 129.605 139.443 130.617C132.697 135.197 125.359 139.192 118.38 143.431C112.246 147.157 106.231 151.344 99.8449 154.612C97.995 155.558 96.1727 156.404 94.0907 156.656C94.0608 156.657 94.031 156.659 94.0011 156.659C91.3311 156.718 88.6451 155.441 86.3086 154.259C81.3678 151.76 76.6597 148.204 71.9206 145.305L56.5385 136.05C52.0496 133.337 47.3847 130.803 43.5821 127.141C43.5041 127.065 43.4241 126.992 43.3483 126.915C42.334 125.879 42.1541 122.95 42.0518 121.572C41.6307 115.903 42.0528 110.01 42.0376 104.305C42.0126 94.8342 41.7148 85.2838 42.021 75.8221C42.0755 74.1374 42.1307 70.2737 43.4581 69.0521C49.7511 63.2608 58.1844 59.4532 65.4364 54.9468C72.8373 50.348 80.1244 45.1134 87.7888 40.9928C89.5099 40.0675 91.0646 39.4545 92.9752 39.0389Z"/><path fill="#2C0F32" d="M92.972 41.5681C93.0047 41.5707 93.0374 41.5729 93.0701 41.5757C95.1871 41.7631 97.0131 42.5327 98.8892 43.4955C104.44 46.3442 109.55 50.1702 114.864 53.441C121.563 57.5634 137.385 65.6044 141.871 70.8605C142.354 74.6372 142.249 78.4728 142.257 82.2724L142.282 97.2609C142.297 103.982 143.296 119.918 141.729 125.469C137.135 130.245 125.469 136.058 119.41 139.78C113.073 143.674 106.959 148.035 100.392 151.534C98.3383 152.629 96.3369 153.49 94.0798 154.077C94.0054 154.075 93.931 154.072 93.8567 154.067C92.0198 153.946 90.5155 153.289 88.888 152.471C83.119 149.574 77.8214 145.695 72.3032 142.351C65.5191 138.241 49.5116 130.133 44.7948 124.737C44.2181 116.709 44.7042 108.438 44.7233 100.385C44.7464 90.6681 44.3849 80.9787 44.8638 71.2659C48.7199 67.1171 54.5907 64.435 59.3926 61.5411L73.0009 53.1657C78.2022 49.9424 83.2365 46.293 88.5763 43.3286C90.0035 42.5363 91.356 41.8626 92.972 41.5681Z"/><path fill="#2C0F32" d="M68.3583 80.4837C68.7192 78.8895 68.9823 77.0563 69.5903 75.5452C70.8447 72.4276 74.5671 69.6931 77.2947 67.9596C79.7643 66.3901 82.6362 65.1983 85.6018 65.8692C87.9865 66.4087 89.7257 67.9189 90.9866 69.963C91.0512 70.0662 91.1129 70.1712 91.1715 70.2779C91.4957 78.314 91.3185 86.3804 91.5122 94.4229C91.7134 102.782 92.6653 111.576 91.4999 119.868C91.3049 121.255 90.9549 122.419 89.9901 123.486C88.314 125.341 85.3766 126.432 82.915 126.511C80.6047 126.586 78.4608 125.609 76.8036 124.037C76.289 123.55 75.8277 122.995 75.373 122.451C74.3566 121.391 73.2333 120.535 72.0578 119.66C71.4341 119.312 70.8167 118.946 70.2704 118.482C68.3392 116.845 65.5026 113.26 65.3892 110.609C65.3611 109.954 65.5673 109.703 65.9829 109.251C66.0708 109.083 66.1446 108.96 66.1429 108.765C66.1382 108.245 65.507 107.933 65.1418 107.578C63.0924 105.586 61.5341 102.438 61.5197 99.5513C61.5065 96.9117 62.7718 94.7938 64.5716 92.9594C64.9831 92.3935 64.5125 92.1209 64.2118 91.6562C63.2743 90.2073 63.4942 88.2669 63.5831 86.6271C64.608 84.0201 66.3091 82.3355 68.3583 80.4837Z"/><path fill="#F94FD4" d="M68.3583 80.4837C68.7192 78.8895 68.9823 77.0563 69.5903 75.5452C70.8447 72.4276 74.5671 69.6931 77.2947 67.9596C79.7643 66.3901 82.6362 65.1983 85.6018 65.8692C87.9865 66.4087 89.7257 67.9189 90.9866 69.963C91.0512 70.0662 91.1129 70.1712 91.1715 70.2779C91.4957 78.314 91.3185 86.3804 91.5122 94.4229C91.7134 102.782 92.6653 111.576 91.4999 119.868C91.3049 121.255 90.9549 122.419 89.9901 123.486C88.314 125.341 85.3766 126.432 82.915 126.511C80.6047 126.586 78.4608 125.609 76.8036 124.037C76.289 123.55 75.8277 122.995 75.373 122.451C76.2808 121.898 77.2232 121.576 78.2819 121.493C78.3725 121.773 78.4758 122.054 78.6455 122.296C79.1816 123.061 80.0242 123.435 80.9262 123.569C83.6087 123.967 86.3753 122.619 88.4667 121.073C88.6835 113.212 88.4224 105.391 88.4742 97.5355C88.5254 89.7819 88.9291 81.7814 88.419 74.0531C88.3472 72.9662 88.2809 71.3944 87.6685 70.4702C87.0654 69.56 86.0556 68.9411 85.0003 68.7146C82.7004 68.2209 80.4932 69.1923 78.5983 70.3857C78.3556 71.7533 78.1375 73.1251 77.9439 74.5004C76.4243 74.5059 74.3915 74.0044 72.968 74.6075C72.374 74.8591 71.9819 75.2884 71.7469 75.8845C71.4783 76.5662 71.4045 77.3835 71.7266 78.0615C72.6601 80.026 77.2591 80.7865 79.2358 81.5095C79.2755 82.4931 78.888 83.3061 78.522 84.1949C76.3868 84.3996 74.4008 83.7463 72.6394 82.5483C72.7204 82.3339 72.7948 82.112 72.8158 81.8823C72.8776 81.2059 72.5355 80.4124 72.0897 79.9187C71.4309 79.5542 70.9015 79.5703 70.1622 79.5985C69.631 79.9565 69.1473 80.2126 68.5399 80.422L68.3583 80.4837Z"/><path fill="#F94FD4" d="M63.5831 86.6271C63.9815 87.4501 64.3289 88.0426 65.0166 88.6628L65.6093 88.846L65.8477 88.4995C66.2603 89.7442 66.7175 90.5013 67.9196 91.1037C70.1806 92.2368 73.3731 92.0285 75.8237 91.8415C76.5369 90.6223 77.1316 89.5404 78.5928 89.1451C79.0585 89.2793 79.1787 89.2936 79.4217 89.7425C79.821 90.4802 79.5605 91.5835 79.3156 92.3296C78.8481 93.7538 77.8279 95.2554 76.4465 95.8963C75.2553 96.4489 73.9384 96.312 72.7405 95.8502C71.5782 95.4022 70.4408 94.8358 69.3221 94.2873C67.968 94.7639 66.6394 95.2654 65.3206 95.833C64.9608 94.8726 64.6075 93.9982 64.5716 92.9594C64.9831 92.3935 64.5125 92.1209 64.2118 91.6562C63.2743 90.2073 63.4942 88.2669 63.5831 86.6271Z"/><path fill="#FD70DF" d="M65.9829 109.251C66.0708 109.083 66.1446 108.96 66.1429 108.765C66.1382 108.245 65.507 107.933 65.1418 107.578C63.0924 105.586 61.5341 102.438 61.5197 99.5513C61.5065 96.9117 62.7718 94.7938 64.5716 92.9594C64.6075 93.9982 64.9608 94.8726 65.3206 95.833C64.4712 97.7915 64.2823 100.241 65.0866 102.243C66.1002 104.766 68.3765 106.458 69.728 108.774L68.1077 110.931L67.6146 110.945C66.8776 110.528 66.4683 109.921 65.9829 109.251Z"/><path fill="#F94FD4" d="M81.0142 77.3272C81.7015 76.8685 81.9199 76.6727 82.7427 76.643C84.0135 77.1665 84.7337 78.1969 85.2526 79.4336C85.8113 80.7651 86.278 82.6924 85.672 84.0614C85.4403 84.5849 85.0835 84.9861 84.5324 85.1721C83.6813 85.4593 82.2169 85.2209 81.4031 84.8833C80.2928 84.9246 79.5118 84.6897 78.522 84.1949C78.888 83.3061 79.2755 82.4931 79.2358 81.5095C80.0569 80.6525 79.7878 79.0036 80.5045 77.997C80.668 77.7689 80.8379 77.5456 81.0142 77.3272Z"/><path fill="#2C0F32" d="M79.2358 81.5095C80.0569 80.6525 79.7878 79.0036 80.5045 77.997C80.668 77.7689 80.8379 77.5456 81.0142 77.3272C81.7177 78.6332 82.2376 79.9408 82.7281 81.3394C81.6513 82.5809 81.4171 83.2438 81.4031 84.8833C80.2928 84.9246 79.5118 84.6897 78.522 84.1949C78.888 83.3061 79.2755 82.4931 79.2358 81.5095Z"/><path fill="#FD70DF" d="M68.3583 80.4837L68.5399 80.422C69.1473 80.2126 69.631 79.9565 70.1622 79.5985C70.9015 79.5703 71.4309 79.5542 72.0897 79.9187C72.5355 80.4124 72.8776 81.2059 72.8158 81.8823C72.7948 82.112 72.7204 82.3339 72.6394 82.5483C71.8397 82.2208 71.3255 82.118 70.5092 82.4522C68.6695 83.2052 67.0425 85.3406 66.2929 87.1402C66.1107 87.5776 65.9761 88.0443 65.8477 88.4995L65.6093 88.846L65.0166 88.6628C64.3289 88.0426 63.9815 87.4501 63.5831 86.6271C64.608 84.0201 66.3091 82.3355 68.3583 80.4837Z"/><path fill="#F94FD4" d="M65.9829 109.251C66.4683 109.921 66.8776 110.528 67.6146 110.945L68.1077 110.931C69.6398 112.806 71.3336 117.025 73.6696 117.876C72.8237 118.278 72.5648 118.894 72.0578 119.66C71.4341 119.312 70.8167 118.946 70.2704 118.482C68.3392 116.845 65.5026 113.26 65.3892 110.609C65.3611 109.954 65.5673 109.703 65.9829 109.251Z"/><path fill="#FD70DF" d="M73.6696 117.876L78.3559 118.323C78.3377 119.37 78.3691 120.452 78.2819 121.493C77.2232 121.576 76.2808 121.898 75.373 122.451C74.3566 121.391 73.2333 120.535 72.0578 119.66C72.5648 118.894 72.8237 118.278 73.6696 117.876Z"/><path fill="#F94FD4" d="M83.9588 104.424C85.2783 104.927 87.1665 105.433 87.8779 106.748C88.1239 107.202 88.0896 107.282 87.9416 107.768C86.8888 108.583 85.603 108.355 84.3621 108.249C83.9121 109.6 83.5041 111.183 82.7072 112.368C82.2977 112.977 81.9271 113.367 81.1924 113.515C80.3675 113.677 79.4194 113.788 78.5789 113.775C77.893 113.764 77.3746 113.618 76.8815 113.132C76.3893 110.916 80.554 108.629 81.9649 107.204C82.7675 106.394 83.3667 105.391 83.9588 104.424Z"/><path fill="#FD70DF" d="M70.1426 100.405C71.241 100.498 75.2379 100.991 76.1449 101.228C76.8625 101.416 77.6281 101.711 78.0065 102.381C78.4788 103.218 78.0544 104.273 77.8115 105.131C77.4085 105.223 76.9855 105.315 76.5731 105.35C75.0461 105.478 72.9495 104.674 71.81 103.702C70.6672 102.726 70.2701 101.889 70.1426 100.405Z"/><path fill="#F94FD4" d="M85.3598 94.5399C85.8574 94.5054 86.4059 94.439 86.9028 94.4801C87.5701 94.5353 87.7932 94.6775 88.2258 95.1734C88.2306 96.3548 85.2961 98.3774 84.4236 99.2584C84.0759 99.3962 83.6826 99.5823 83.3026 99.5651C82.7599 99.5406 82.6947 99.3809 82.3407 98.9958C82.1423 98.3246 82.2392 97.8446 82.4883 97.1961C83.0576 95.7146 83.9872 95.1504 85.3598 94.5399Z"/><path fill="#2C0F32" d="M94.484 96.1548C94.5741 92.9822 94.5901 89.8078 94.5318 86.6344C94.4313 82.0968 93.1487 72.1975 95.363 68.4194C96.1847 67.0174 97.7196 66.1745 99.2548 65.7767C102.995 64.8074 106.017 66.1721 108.557 68.9366C109.191 69.6268 109.671 70.541 110.507 71.0049C110.548 71.0276 110.59 71.0488 110.631 71.0707C112.068 71.2792 113.549 71.8179 114.438 73.0311C115.803 74.8922 115.463 77.4391 116.407 79.4599C118.1 83.0857 122.697 85.0429 121.911 89.7043C121.71 90.897 121.42 91.6492 120.685 92.6183L121.442 93.6905C122.758 94.6117 123.737 96.3226 124 97.9069C124.826 102.898 121.487 105.928 119.804 110.16C119.037 112.089 118.909 114.252 117.852 116.069L117.777 116.201C116.497 118.387 112.84 119.995 110.84 121.556C109.226 122.815 107.725 124.32 106.034 125.471C105.564 125.79 105.049 125.989 104.503 126.13C102.276 126.7 99.7764 126.409 97.7888 125.232C96.1207 124.244 94.9331 122.686 94.4635 120.807C93.4854 116.893 94.2686 101.094 94.484 96.1548Z"/><path fill="#F94FD4" d="M121.442 93.6905C122.758 94.6117 123.737 96.3226 124 97.9069C124.826 102.898 121.487 105.928 119.804 110.16C119.037 112.089 118.909 114.252 117.852 116.069L117.777 116.201C116.497 118.387 112.84 119.995 110.84 121.556C109.226 122.815 107.725 124.32 106.034 125.471C105.564 125.79 105.049 125.989 104.503 126.13C102.276 126.7 99.7764 126.409 97.7888 125.232C96.1207 124.244 94.9331 122.686 94.4635 120.807C93.4854 116.893 94.2686 101.094 94.484 96.1548C95.4581 96.1086 96.4327 96.41 97.3462 96.3474C96.9686 100.389 97.2457 104.653 97.2316 108.716C97.219 112.305 96.7922 116.191 97.3516 119.731C97.5452 120.956 97.772 121.848 98.8336 122.601C100.312 123.649 102.427 123.985 104.194 123.653C105.29 123.446 106.205 122.933 106.826 121.987C107.718 120.627 107.233 119.403 106.901 117.933C108.781 117.724 110.578 117.606 112.473 117.639C114.122 116.426 116.126 114.349 116.669 112.338C117.19 110.409 116.489 109.465 115.555 107.832C117.851 106.113 120.663 104.614 121.313 101.556C121.794 99.2917 120.802 97.3307 119.596 95.5081C120.244 94.9293 120.843 94.319 121.442 93.6905Z"/><path fill="#2C0F32" d="M97.6742 80.5597C97.9316 77.5413 96.1542 71.9902 98.0079 69.4433C98.6354 68.5811 99.4868 68.4286 100.48 68.2935C105.524 67.6074 105.535 71.6705 108.846 73.9035C109.415 74.287 110.144 73.9669 110.75 73.833C111.623 74.0708 112.1 74.5829 112.545 75.3597C113.186 76.4778 113.432 78.068 113.737 79.324C111.225 79.5876 109.009 80.8236 106.566 81.2346C106.213 81.7342 105.921 82.0928 106.035 82.7474C106.142 83.3589 106.536 84.0409 106.89 84.5459C106.175 84.9079 105.728 85.0745 104.93 84.8859C104.417 84.9699 103.853 85.005 103.335 84.9646C102.304 84.8844 101.644 83.672 101.033 82.9483C100.234 82.5086 98.6002 83.0217 97.6378 83.0968C97.5254 82.3894 97.3461 81.206 97.6742 80.5597Z"/><path fill="#F94FD4" d="M97.6742 80.5597L98.1152 80.7277C99.7677 79.3462 100.357 75.9003 102.608 75.5042C102.894 75.6461 103.153 75.6901 103.272 76.0063C103.918 77.7265 101.637 79.8198 101.931 81.4919L102.181 81.5298C103.64 81.3976 105.103 81.2991 106.566 81.2346C106.213 81.7342 105.921 82.0928 106.035 82.7474C106.142 83.3589 106.536 84.0409 106.89 84.5459C106.175 84.9079 105.728 85.0745 104.93 84.8859C104.417 84.9699 103.853 85.005 103.335 84.9646C102.304 84.8844 101.644 83.672 101.033 82.9483C100.234 82.5086 98.6002 83.0217 97.6378 83.0968C97.5254 82.3894 97.3461 81.206 97.6742 80.5597Z"/><path fill="#2C0F32" d="M102.181 81.5298C103.64 81.3976 105.103 81.2991 106.566 81.2346C106.213 81.7342 105.921 82.0928 106.035 82.7474C106.142 83.3589 106.536 84.0409 106.89 84.5459C106.175 84.9079 105.728 85.0745 104.93 84.8859C104.898 83.9884 104.963 82.9766 104.546 82.1615C103.951 81.5688 102.975 81.6052 102.181 81.5298Z"/><path fill="#FD70DF" d="M94.484 96.1548C94.5741 92.9822 94.5901 89.8078 94.5318 86.6344C94.4313 82.0968 93.1487 72.1975 95.363 68.4194C96.1847 67.0174 97.7196 66.1745 99.2548 65.7767C102.995 64.8074 106.017 66.1721 108.557 68.9366C109.191 69.6268 109.671 70.541 110.507 71.0049C110.548 71.0276 110.59 71.0488 110.631 71.0707C110.84 72.0683 110.893 72.8121 110.75 73.833C110.144 73.9669 109.415 74.287 108.846 73.9035C105.535 71.6705 105.524 67.6074 100.48 68.2935C99.4868 68.4286 98.6354 68.5811 98.0079 69.4433C96.1542 71.9902 97.9316 77.5413 97.6742 80.5597C97.3461 81.206 97.5254 82.3894 97.6378 83.0968C97.5603 86.539 97.5143 89.9819 97.4997 93.425C99.9979 94.1947 102.735 95.0746 104.077 97.5359C104.454 98.2274 104.723 99.0369 104.481 99.8162C104.421 100.01 104.074 100.241 103.912 100.38C103.007 100.568 102.174 100.454 101.398 99.923C99.8777 98.883 99.1316 97.0861 97.3462 96.3474C96.4327 96.41 95.4581 96.1086 94.484 96.1548Z"/><path fill="#F94FD4" d="M110.631 71.0707C112.068 71.2792 113.549 71.8179 114.438 73.0311C115.803 74.8922 115.463 77.4391 116.407 79.4599C118.1 83.0857 122.697 85.0429 121.911 89.7043C121.71 90.897 121.42 91.6492 120.685 92.6183C119.801 91.8134 120.084 90.4464 119.055 89.7898C119.009 89.4822 118.99 89.1851 118.969 88.8751C118.748 85.4904 115.975 83.3944 113.622 81.3351C111.482 83.0908 109.854 84.6409 106.89 84.5459C106.536 84.0409 106.142 83.3589 106.035 82.7474C105.921 82.0928 106.213 81.7342 106.566 81.2346C109.009 80.8236 111.225 79.5876 113.737 79.324C113.432 78.068 113.186 76.4778 112.545 75.3597C112.1 74.5829 111.623 74.0708 110.75 73.833C110.893 72.8121 110.84 72.0683 110.631 71.0707Z"/><path fill="#FD70DF" d="M119.055 89.7898C120.084 90.4464 119.801 91.8134 120.685 92.6183L121.442 93.6905C120.843 94.319 120.244 94.9293 119.596 95.5081C118.329 94.5533 116.905 93.8327 115.425 93.2643C114.405 94.5028 112.639 97.0999 110.976 97.2418C110.434 97.2881 110.204 97.1295 109.753 96.8706L109.222 95.9458C110.408 94.995 111.182 94.1893 111.694 92.7467C111.746 92.3497 111.783 91.9139 111.911 91.5344C112.091 90.9999 112.188 90.9261 112.683 90.682C113.721 90.7793 114.742 91.7569 115.564 92.3602C116.937 91.699 118.045 90.9333 119.055 89.7898Z"/><path fill="#F94FD4" d="M109.222 95.9458C109.691 93.5875 104.401 91.6532 103.414 89.6032C103.195 89.1473 103.249 89.04 103.409 88.5873C103.712 88.3855 104.034 88.2058 104.41 88.2153C106.46 88.2671 110.267 91.3566 111.694 92.7467C111.182 94.1893 110.408 94.995 109.222 95.9458Z"/><path fill="#F94FD4" d="M98.8373 104.609C99.3134 104.629 99.9181 104.637 100.35 104.852C100.494 104.923 107.493 111.119 107.639 111.34C107.716 111.455 107.76 111.72 107.805 111.86C107.605 112.565 107.094 112.914 106.548 113.362C105.552 113.701 104.602 114.054 103.557 113.745C102.585 112.843 102.641 111.576 102.147 110.399C101.446 108.728 100.465 108.6 99.0032 107.943C98.3848 107.665 98.271 107.477 98.0582 106.846C98.1859 105.998 98.438 105.365 98.8373 104.609Z"/><path fill="#F94FD4" d="M111.059 100.814C111.638 100.815 112.348 100.845 112.903 101.007C113.521 101.188 113.73 101.535 114.025 102.057C114.031 102.633 113.896 102.972 113.546 103.429C112.502 104.792 111.046 105.181 109.433 105.385C108.476 105.014 107.532 104.747 106.825 103.964C106.693 103.499 106.559 103.285 106.816 102.824C107.451 101.69 109.877 101.151 111.059 100.814Z"/></svg>